<?xml version="1.0" encoding="utf-8"?>
<svg version="1.1" xmlns:xlink="http://www.w3.org/1999/xlink" width="168px" height="172px" xmlns="http://www.w3.org/2000/svg">
  <defs>
    <pattern id="BGPattern" patternUnits="userSpaceOnUse" alignment="0 0" imageRepeat="None" />
    <mask fill="white" id="Clip5">
      <path d="M 137 172  L 168 86  L 137 0  L 137 62  L 0 62  L 0 110  L 137 110  L 137 172  Z " fill-rule="evenodd" />
    </mask>
  </defs>
  <g transform="matrix(1 0 0 1 -687 -886 )">
    <path d="M 137 172  L 168 86  L 137 0  L 137 62  L 0 62  L 0 110  L 137 110  L 137 172  Z " fill-rule="nonzero" fill="rgba(255, 255, 255, 1)" stroke="none" transform="matrix(1 0 0 1 687 886 )" class="fill" />
    <path d="M 137 172  L 168 86  L 137 0  L 137 62  L 0 62  L 0 110  L 137 110  L 137 172  Z " stroke-width="2" stroke-dasharray="0" stroke="rgba(121, 121, 121, 1)" fill="none" transform="matrix(1 0 0 1 687 886 )" class="stroke" mask="url(#Clip5)" />
  </g>
</svg>